<svg width="20" height="20" viewBox="0 0 20 20" fill="none" xmlns="http://www.w3.org/2000/svg">
<path d="M10 0C4.48603 0 0 4.48597 0 9.99991C0 15.5139 4.48594 20 9.99995 20C15.5141 20 20 15.5139 20 9.99991C20.0001 4.48597 15.5142 0 10 0ZM10 18.6311C5.24087 18.6311 1.36904 14.7591 1.36904 9.99991C1.36894 5.24079 5.24087 1.36893 10 1.36893C14.7592 1.36893 18.6311 5.24079 18.6311 9.99991C18.6311 14.7592 14.7592 18.6311 10 18.6311Z" fill="white"/>
<path d="M15.1603 9.86646H10.41V4.67714C10.41 4.29913 10.1036 3.99268 9.72549 3.99268C9.34748 3.99268 9.04102 4.29913 9.04102 4.67714V10.5509C9.04102 10.9289 9.34748 11.2354 9.72549 11.2354H15.1603C15.5384 11.2354 15.8448 10.9289 15.8448 10.5509C15.8448 10.1729 15.5383 9.86646 15.1603 9.86646Z" fill="white"/>
</svg>
