<svg width="30" height="30" viewBox="0 0 30 30" fill="none" xmlns="http://www.w3.org/2000/svg">
<path fill-rule="evenodd" clip-rule="evenodd" d="M16.5446 1.86829L16.5446 1.86828C15.5856 1.26598 14.4143 1.26598 13.4553 1.86828L13.4553 1.86829C11.5598 3.05873 8.78065 5.01102 6.30858 7.53859C3.62081 10.2867 2.45724 12.3422 1.91645 14.2621C1.4095 16.0618 1.41321 17.8286 1.41825 20.2255C1.41877 20.4702 1.4193 20.7215 1.4193 20.98C1.4193 23.4519 1.60871 25.534 1.80839 27.0414L1.80839 27.0415C1.92604 27.9297 2.68164 28.5834 3.6401 28.5834H26.3598C27.3182 28.5834 28.0739 27.9297 28.1916 27.0416C28.3912 25.5338 28.5807 23.4517 28.5807 20.98C28.5807 20.7217 28.5812 20.4705 28.5817 20.226C28.5868 17.8288 28.5905 16.0619 28.0835 14.2621C27.5427 12.3422 26.3791 10.2867 23.6914 7.53857C21.2192 5.01099 18.4401 3.05873 16.5446 1.86829ZM29.5959 27.2276C29.3785 28.8682 27.979 30 26.3598 30H3.6401C2.02086 30 0.621405 28.8682 0.404104 27.2274C0.197566 25.6683 0.0027432 23.5233 0.0027432 20.98C0.0027432 20.7155 0.00203336 20.456 0.00133586 20.201C-0.012237 15.2393 -0.0211406 11.9845 5.29587 6.54811C7.87424 3.91185 10.754 1.89199 12.7019 0.66869C14.1215 -0.222897 15.8783 -0.222897 17.298 0.66869C19.2458 1.89199 22.1257 3.91185 24.7041 6.54811C30.0211 11.9847 30.0122 15.2395 29.9987 20.2015C29.998 20.4563 29.9973 20.7157 29.9973 20.98C29.9973 23.5233 29.8023 25.6683 29.5959 27.2276Z" fill="white"/>
</svg>
