<svg width="20" height="20" viewBox="0 0 20 20" fill="none" xmlns="http://www.w3.org/2000/svg">
<path d="M9 9V3.85003L6.36395 5.82705C5.99003 6.11088 5.45682 6.03783 5.17299 5.66391C4.88917 5.28998 4.96221 4.75677 5.33614 4.47295L10 1L14.664 4.47295C15.0379 4.75677 15.1109 5.28998 14.8271 5.66391C14.5433 6.03783 14.0101 6.11088 13.6362 5.82705L11 3.84995V9M9 9H4C2.34315 9 1 10.3431 1 12L1 16C1 17.6569 2.34315 19 4 19H16C17.6569 19 19 17.6569 19 16V12C19 10.3431 17.6569 9 16 9H11M9 9H11M9 9V15H11V9" stroke="white" stroke-linecap="round"/>
</svg>
