<svg width="20" height="17" viewBox="0 0 20 17" fill="none" xmlns="http://www.w3.org/2000/svg">
<path d="M18 6.50221H17.5V7.00221V14.0044V14.5044H18C18.276 14.5044 18.5 14.7283 18.5 15.0047V16.5054H1.5V15.0047C1.5 14.7283 1.72401 14.5044 2 14.5044H2.5V14.0044V7.00221V6.50221H2H1.78078C1.55146 6.50221 1.3514 6.34608 1.29571 6.12327L1.07636 5.24558L8.62221 0.875552C9.47448 0.381977 10.5255 0.381978 11.3778 0.875553L18.9236 5.24558L18.7043 6.12328C18.6486 6.34608 18.4485 6.50221 18.2192 6.50221H18ZM4.5 14.0044V14.5044H5H8.5H9V14.0044V7.75245C9 6.50965 7.99279 5.5019 6.75 5.5019C5.50721 5.5019 4.5 6.50965 4.5 7.75245V14.0044ZM11 14.0044V14.5044H11.5H15H15.5V14.0044V7.75245C15.5 6.50965 14.4928 5.5019 13.25 5.5019C12.0072 5.5019 11 6.50965 11 7.75245V14.0044ZM10 5.00142C10.8286 5.00142 11.5 4.32956 11.5 3.50111C11.5 2.67265 10.8286 2.00079 10 2.00079C9.17142 2.00079 8.5 2.67265 8.5 3.50111C8.5 4.32956 9.17142 5.00142 10 5.00142Z" stroke="white"/>
</svg>
