<svg width="20" height="15" viewBox="0 0 20 15" fill="none" xmlns="http://www.w3.org/2000/svg">
<path fill-rule="evenodd" clip-rule="evenodd" d="M0 3C0 1.34315 1.34315 0 3 0H13C14.6569 0 16 1.34315 16 3V8C16 9.65685 14.6569 11 13 11H3C1.34315 11 0 9.65685 0 8V3ZM2 3H5V5H2V3Z" fill="white"/>
<path d="M5.99995 15C4.69373 15 3.58249 14.1652 3.17065 13H16.9999C17.5522 13 17.9999 12.5523 17.9999 12V4.17071C19.1651 4.58254 19.9999 5.69378 19.9999 7V12C19.9999 13.6569 18.6568 15 16.9999 15H5.99995Z" fill="white"/>
</svg>
