<svg width="30" height="30" viewBox="0 0 30 30" fill="none" xmlns="http://www.w3.org/2000/svg">
<circle cx="15" cy="15" r="14.5" stroke="white"/>
<path d="M15.7422 23.3184H14.375V22.0977C12.8451 22.013 11.6439 21.6061 10.7715 20.877C9.9056 20.1478 9.4694 19.1875 9.46289 17.9961H12.2559C12.2884 18.4779 12.4967 18.8848 12.8809 19.2168C13.2715 19.5488 13.7695 19.7474 14.375 19.8125V16.1797L13.3496 15.9355C12.1712 15.6621 11.276 15.1934 10.6641 14.5293C10.0521 13.8587 9.74609 13.0156 9.74609 12C9.74609 10.8021 10.153 9.83529 10.9668 9.09961C11.7806 8.36393 12.9167 7.9375 14.375 7.82031V6.49219H15.7422V7.82031C17.1029 7.95052 18.1901 8.38672 19.0039 9.12891C19.8177 9.86458 20.2344 10.7956 20.2539 11.9219H17.5293C17.5163 11.4792 17.3438 11.0918 17.0117 10.7598C16.6797 10.4277 16.2565 10.2259 15.7422 10.1543V13.6309L16.7871 13.8457C19.2806 14.3796 20.5273 15.6947 20.5273 17.791C20.5273 19.0345 20.1107 20.0273 19.2773 20.7695C18.4505 21.5117 17.2721 21.9479 15.7422 22.0781V23.3184ZM17.7539 18.123C17.7539 17.2376 17.0833 16.6712 15.7422 16.4238V19.8223C16.3737 19.7832 16.8652 19.6139 17.2168 19.3145C17.5749 19.015 17.7539 18.6178 17.7539 18.123ZM12.5781 11.7266C12.5781 12.1367 12.7311 12.4818 13.0371 12.7617C13.3431 13.0352 13.7891 13.2305 14.375 13.3477V10.1445C13.8477 10.1706 13.4147 10.3333 13.0762 10.6328C12.7441 10.9258 12.5781 11.2904 12.5781 11.7266Z" fill="white"/>
</svg>
