<svg width="30" height="30" viewBox="0 0 30 30" fill="none" xmlns="http://www.w3.org/2000/svg">
<path d="M0.931042 13.8333H8.37937C8.47442 13.8333 8.57863 13.875 8.66493 13.9716C8.75286 14.0699 8.81042 14.2143 8.81042 14.3749V29.4999H0.5V14.3749C0.5 14.2143 0.557552 14.0699 0.64549 13.9716C0.731784 13.875 0.835994 13.8333 0.931042 13.8333Z" stroke="white"/>
<path d="M11 0.5H19.0001C19.1427 0.5 19.2736 0.553426 19.3652 0.639357C19.4558 0.724263 19.5001 0.832262 19.5001 0.9375V29.5H10.5V0.9375C10.5 0.832262 10.5443 0.724264 10.6349 0.639357C10.7265 0.553426 10.8574 0.5 11 0.5Z" stroke="white"/>
<path d="M21.6205 6.05566H29.0688C29.1679 6.05566 29.2731 6.09832 29.3581 6.19133C29.4445 6.28584 29.4999 6.42289 29.4999 6.57418V29.5001H21.1895V6.57418C21.1895 6.42289 21.2448 6.28584 21.3312 6.19133C21.4162 6.09832 21.5214 6.05566 21.6205 6.05566Z" stroke="white"/>
</svg>
